<?xml version="1.0" encoding="UTF-8"?>
<svg version="1.1" xmlns="http://www.w3.org/2000/svg" width="546" height="527">
<path d="M0 0 C180.18 0 360.36 0 546 0 C546 173.91 546 347.82 546 527 C365.82 527 185.64 527 0 527 C0 353.09 0 179.18 0 0 Z " fill="#FEFEFE" transform="translate(0,0)"/>
<path d="M0 0 C0.70286133 0.18933105 1.40572266 0.37866211 2.12988281 0.57373047 C34.82279 9.5080915 63.04546211 27.21528617 87.75 50.0625 C88.36415771 50.62807617 88.97831543 51.19365234 89.61108398 51.77636719 C120.65731612 80.85944941 141.19783248 122.26953633 148 164 C148.11569336 164.68562012 148.23138672 165.37124023 148.35058594 166.07763672 C153.58225105 198.5620855 150.5091906 234.12786295 139 265 C138.73735352 265.71494629 138.47470703 266.42989258 138.20410156 267.16650391 C134.67286554 276.69303734 130.78302741 285.93612556 125.9375 294.875 C125.55062012 295.60541504 125.16374023 296.33583008 124.76513672 297.08837891 C121.67412807 302.5884994 117.72393088 307.13803456 112 310 C106.92916973 310.64891795 102.42376139 310.7825076 98.0625 307.875 C94.29492352 304.67611431 92.31406583 301.63242795 91.71606445 296.62011719 C91.42670125 289.02381768 93.29017834 284.32806219 97.125 277.875 C102.20031875 268.80636067 105.87631799 259.88629253 109 250 C109.56040351 248.39509974 110.12247978 246.79078073 110.6875 245.1875 C111.13658084 243.79534938 111.57378497 242.39932044 112 241 C112.25523437 240.16339844 112.51046875 239.32679688 112.7734375 238.46484375 C119.01812829 215.99013976 119.7532403 188.74587242 115 166 C114.84934082 165.26620117 114.69868164 164.53240234 114.54345703 163.77636719 C108.73663531 136.25392879 96.6642257 110.8594793 79 89 C76.19030533 90.28022875 74.1460762 91.60714129 71.97558594 93.79736328 C71.41530701 94.35779327 70.85502808 94.91822327 70.277771 95.49563599 C69.68595032 96.09777924 69.09412964 96.69992249 68.484375 97.3203125 C67.86854553 97.93897186 67.25271606 98.55763123 66.6182251 99.19503784 C64.65739664 101.16703814 62.70364699 103.14588737 60.75 105.125 C59.41973201 106.46530164 58.089008 107.80515083 56.7578125 109.14453125 C53.4998985 112.42446589 50.24831467 115.71055942 47 119 C47.3108252 119.61625244 47.62165039 120.23250488 47.94189453 120.86743164 C49.8973276 124.80852713 51.43665119 128.89107223 53 133 C53.35147598 133.87438217 53.70295197 134.74876434 54.06507874 135.64964294 C57.78819808 146.01829716 57.56503605 156.07826036 57.49609375 166.97265625 C57.49624909 168.98799186 57.49774381 171.00332777 57.50050354 173.0186615 C57.5018805 177.22196827 57.48944673 181.4249309 57.46655273 185.62817383 C57.43815219 190.98630851 57.44092007 196.34387322 57.45364285 201.70205021 C57.46063333 205.85705847 57.45277272 210.0119375 57.44038582 214.16692924 C57.4359053 216.14146871 57.43550439 218.11602222 57.43945122 220.09056282 C57.45046325 230.44321741 57.35093134 240.07360749 54 250 C53.43539062 251.70542969 53.43539062 251.70542969 52.859375 253.4453125 C46.68380851 268.36234988 37.16646258 279.26004528 23 287 C21.87839478 287.71446289 21.87839478 287.71446289 20.73413086 288.44335938 C10.02261694 294.54181573 -0.85780859 294.24095027 -12.72491455 293.92727661 C-31.17814712 293.55446865 -43.26389103 296.31665746 -58.55859375 307.27197266 C-61.95191572 309.67376595 -65.5031769 311.71772736 -69.125 313.75 C-70.11757812 314.34296875 -71.11015625 314.9359375 -72.1328125 315.546875 C-78.83363431 318.94293183 -85.59405805 319.99558616 -93 319 C-103.31186247 315.46032522 -109.23790815 308.52418369 -114 299 C-114.039992 297.00039988 -114.04346799 294.99952758 -114 293 C-115.0725 292.855625 -116.145 292.71125 -117.25 292.5625 C-121 292 -121 292 -122.98797607 291.25392151 C-125.10745977 290.7598149 -125.10745977 290.7598149 -126.92364502 292.32237244 C-127.58982849 292.99965897 -128.25601196 293.6769455 -128.94238281 294.37475586 C-129.70286926 295.13561996 -130.46335571 295.89648407 -131.24688721 296.68040466 C-132.05744568 297.51676956 -132.86800415 298.35313446 -133.703125 299.21484375 C-134.95980988 300.48214073 -134.95980988 300.48214073 -136.24188232 301.77503967 C-138.92317329 304.48438775 -141.58659517 307.21057805 -144.25 309.9375 C-146.06135184 311.77391965 -147.87383781 313.60922141 -149.6875 315.44335938 C-154.13825621 319.94933556 -158.57444986 324.46927269 -163 329 C-160.44531098 334.51069749 -156.00169549 336.75583555 -151 340 C-150.01386719 340.64324219 -149.02773437 341.28648437 -148.01171875 341.94921875 C-136.92008118 348.97990807 -125.38064628 355.35408928 -112.74609375 359.11328125 C-110 360 -110 360 -106.66015625 361.4765625 C-100.02605768 364.23782018 -93.0200922 365.55615125 -86 367 C-84.88238281 367.23074219 -83.76476562 367.46148437 -82.61328125 367.69921875 C-39.75256441 374.85112535 2.31515364 364.15661865 39 342 C40.42042191 340.98439834 41.83794939 339.96470895 43.25 338.9375 C48.10087096 335.87887561 53.50450859 335.82134232 59 337 C63.57508701 339.65557101 67.00920755 343.05667962 69 348 C69.45301512 353.61738748 69.25782406 357.21507092 66 362 C60.89035815 367.09662267 55.26070984 370.96605301 49 374.5 C48.1762085 374.97066895 47.35241699 375.44133789 46.50366211 375.92626953 C38.89046774 380.20031787 31.07108066 383.69701211 23 387 C21.95457031 387.46019531 20.90914063 387.92039062 19.83203125 388.39453125 C-25.20272377 408.08608199 -80.40627069 406.62647886 -126 390 C-126.92167969 389.66742188 -127.84335938 389.33484375 -128.79296875 388.9921875 C-146.44465972 382.1149053 -163.01581723 372.53239471 -178 361 C-178.97710937 360.25363281 -179.95421875 359.50726563 -180.9609375 358.73828125 C-186.44647064 354.38685393 -191.60978387 349.68687311 -196.75 344.9375 C-197.36439941 344.3717627 -197.97879883 343.80602539 -198.61181641 343.22314453 C-235.92950593 308.26109011 -257.28764299 256.13978938 -259.12548828 205.54541016 C-259.8617214 178.11980162 -256.64395991 151.80512709 -247 126 C-246.690625 125.14792969 -246.38125 124.29585937 -246.0625 123.41796875 C-226.26702094 72.54649868 -186.00534264 31.77423924 -136.5625 9.35546875 C-120.97843945 2.58329408 -104.73493128 -2.15529422 -88 -5 C-86.77539062 -5.22429688 -85.55078125 -5.44859375 -84.2890625 -5.6796875 C-56.5056479 -10.00418487 -26.98599643 -7.46031149 0 0 Z " fill="#020202" transform="translate(326,60)"/>
<path d="M0 0 C0.83402344 0.24621094 1.66804687 0.49242188 2.52734375 0.74609375 C19.61448855 6.02638226 35.65917797 14.07219112 50.3125 24.25 C51.04855469 24.75748779 51.78460938 25.26497559 52.54296875 25.7878418 C53.22617187 26.27551025 53.909375 26.76317871 54.61328125 27.265625 C55.21954346 27.69649414 55.82580566 28.12736328 56.45043945 28.57128906 C58.23273452 30.21458364 58.97189944 31.82495477 60 34 C55.57732316 38.60005508 51.12750796 43.17252295 46.65771484 47.72680664 C45.14024504 49.27949473 43.62911491 50.83840499 42.12451172 52.40356445 C39.96134212 54.65157821 37.77640485 56.87627371 35.5859375 59.09765625 C34.91694427 59.80277847 34.24795105 60.5079007 33.5586853 61.23439026 C31.77066826 63.02388394 30.11765167 64.61616813 28 66 C24.65002541 65.98994075 22.78790302 65.32829293 19.75 64.0625 C11.87632085 61.02039669 3.79910751 60.70824578 -4.54907227 60.74121094 C-6.21206863 60.73595398 -6.21206863 60.73595398 -7.90866089 60.73059082 C-11.54464119 60.72184485 -15.18042424 60.72759704 -18.81640625 60.734375 C-21.35888201 60.7330264 -23.90135752 60.73108424 -26.4438324 60.72857666 C-31.76035263 60.72563514 -37.07680322 60.729699 -42.39331055 60.73925781 C-48.51909909 60.75014525 -54.64475449 60.74660897 -60.77053982 60.735605 C-66.69189078 60.72539858 -72.61320077 60.7265255 -78.53455925 60.73236847 C-81.04189002 60.73369878 -83.54922421 60.732079 -86.05655098 60.72740936 C-89.56456526 60.7223086 -93.07232672 60.73010413 -96.58032227 60.74121094 C-97.60758926 60.73716248 -98.63485626 60.73311401 -99.69325256 60.72894287 C-108.9056708 60.78275148 -116.67127825 62.35759275 -124.875 66.5625 C-125.56408447 66.91546143 -126.25316895 67.26842285 -126.96313477 67.63208008 C-140.89482228 75.01264435 -151.24286984 85.93633066 -156.1484375 101.07421875 C-156.42945313 102.03972656 -156.71046875 103.00523437 -157 104 C-157.35870052 105.0587436 -157.35870052 105.0587436 -157.72464752 106.13887596 C-159.66454614 112.06158219 -160.44217971 117.2984821 -160.41992188 123.51025391 C-160.43262619 124.84914673 -160.43262619 124.84914673 -160.44558716 126.21508789 C-160.46878603 129.13572866 -160.46998306 132.05583695 -160.46875 134.9765625 C-160.47586424 137.03144535 -160.48356505 139.08632625 -160.49182129 141.14120483 C-160.5052287 145.4397331 -160.50685276 149.73807784 -160.50097656 154.03662109 C-160.49509834 159.50336447 -160.52561231 164.96921428 -160.56609344 170.43578529 C-160.5921467 174.67931737 -160.59483172 178.92263968 -160.59120178 183.16624069 C-160.59287804 185.17936819 -160.60237383 187.19250699 -160.62034607 189.20555496 C-160.75681853 206.38636038 -158.14119737 220.08935839 -149 235 C-148.01 236.65 -147.02 238.3 -146 240 C-157.55 251.55 -169.1 263.1 -181 275 C-185.51105332 272.74447334 -185.51105332 272.74447334 -187.6640625 269.75390625 C-188.14149902 269.09124756 -188.61893555 268.42858887 -189.11083984 267.74584961 C-189.6105127 267.02534424 -190.11018555 266.30483887 -190.625 265.5625 C-191.14916504 264.8104126 -191.67333008 264.0583252 -192.21337891 263.28344727 C-201.22007545 250.06754313 -207.7703333 236.06991183 -213 221 C-213.50795668 219.66572755 -214.01843711 218.33241356 -214.53125 217 C-224.47375874 190.57058674 -225.75294623 156.28780837 -219 129 C-218.81244141 128.23381348 -218.62488281 127.46762695 -218.43164062 126.67822266 C-216.22901902 117.88733884 -213.73455076 109.27511967 -210 101 C-209.55914062 99.9996875 -209.11828125 98.999375 -208.6640625 97.96875 C-199.87948956 78.44747681 -188.99472237 61.31151228 -174 46 C-173.03325814 44.98363951 -172.06712305 43.96670157 -171.1015625 42.94921875 C-153.17882773 24.28685313 -129.7741689 9.52767186 -105 2 C-103.4567416 1.48390217 -101.9149454 0.96340079 -100.375 0.4375 C-98.91717607 -0.04321426 -97.45877844 -0.52219013 -96 -1 C-95.27200195 -1.24331055 -94.54400391 -1.48662109 -93.79394531 -1.73730469 C-87.37126757 -3.78709546 -81.0642578 -4.91304935 -74.375 -5.6875 C-73.29395996 -5.81342529 -72.21291992 -5.93935059 -71.09912109 -6.0690918 C-46.81779739 -8.67129141 -23.29606568 -7.32592526 0 0 Z " fill="#FDFDFD" transform="translate(321,92)"/>
<path d="M0 0 C1.55257004 -0.00065712 1.55257004 -0.00065712 3.13650513 -0.00132751 C6.53455922 0.00075117 9.93211093 0.02403919 13.33007812 0.04760742 C15.69518769 0.05320663 18.06030074 0.0574752 20.42541504 0.06047058 C26.63311465 0.07189365 32.84060178 0.1013392 39.04821777 0.13458252 C45.38953783 0.16533803 51.7308924 0.17898763 58.07226562 0.1940918 C70.50204618 0.22621116 82.93166945 0.27737695 95.36132812 0.34057617 C89.95310815 6.91482694 83.96310518 12.87301859 77.93994141 18.87548828 C76.78614672 20.0290005 75.63257296 21.18273375 74.47920227 22.33666992 C71.36412291 25.45203494 68.24598083 28.56431781 65.12726068 31.67603755 C61.86232914 34.93469691 58.60024934 38.1962085 55.33786011 41.45741272 C49.16706196 47.62510892 42.99372024 53.79025262 36.81945026 59.95447308 C29.78723338 66.97549346 22.75787253 73.99937032 15.72874475 81.02348316 C1.27610467 95.46568459 -13.18010076 109.90431266 -27.63867188 124.34057617 C-30.63867188 123.34057617 -30.63867188 123.34057617 -31.78919983 121.74769592 C-35.84077378 112.73039809 -35.19886454 103.32909641 -35.13476562 93.64916992 C-35.13492085 91.73446091 -35.13641375 89.81975158 -35.13917542 87.90504456 C-35.14055449 83.90660587 -35.12808288 79.90852804 -35.10522461 75.91015625 C-35.07682235 70.80385671 -35.07958924 65.6981551 -35.09231472 60.59181118 C-35.09929313 56.6427964 -35.09145828 52.69391808 -35.07905769 48.74492073 C-35.07456556 46.86279894 -35.07418667 44.98066239 -35.07812309 43.09853935 C-35.08105715 40.46203807 -35.06442527 37.82634066 -35.04272461 35.18994141 C-35.04722626 34.42449509 -35.05172791 33.65904877 -35.05636597 32.8704071 C-34.93318149 23.79195553 -32.03439132 15.8752907 -25.66210938 9.30151367 C-17.65918077 1.73860864 -10.76126332 -0.12060182 0 0 Z " fill="#FCFCFC" transform="translate(226.638671875,183.659423828125)"/>
<path d="M0 0 C0.99 0.33 1.98 0.66 3 1 C4.09909531 5.45158003 4.16792507 9.82196875 4.19287109 14.37939453 C4.20513733 15.62682686 4.20513733 15.62682686 4.21765137 16.89945984 C4.24240385 19.6439036 4.25899737 22.3882959 4.2734375 25.1328125 C4.27876118 26.07433041 4.28408485 27.01584831 4.28956985 27.98589706 C4.31626031 32.97170953 4.33564633 37.95749735 4.35009766 42.94335938 C4.36341916 47.05393817 4.39124491 51.16401849 4.43212891 55.27441406 C4.48164139 60.25341724 4.50624141 65.23196953 4.51332474 70.21120834 C4.52000584 72.10010582 4.5351452 73.98899448 4.55921555 75.8777504 C4.72168457 89.40018523 3.66095767 99.94472345 -6.03515625 110.27734375 C-11.5307383 115.09553796 -17.77325733 118.23035763 -25.14404297 118.01489258 C-25.95438492 117.99662918 -26.76472687 117.97836578 -27.59962463 117.95954895 C-28.47167038 117.93809311 -29.34371613 117.91663727 -30.2421875 117.89453125 C-59.26213137 117.14737053 -59.26213137 117.14737053 -84.84814453 129.41210938 C-88.31531963 131.97059665 -92.0352593 134.07604004 -95.75 136.25 C-96.9326144 136.98385516 -98.11494186 137.71817311 -99.296875 138.453125 C-102 140 -102 140 -104 140 C-104.00386719 138.82244141 -104.00386719 138.82244141 -104.0078125 137.62109375 C-104.24274595 131.23873496 -104.66891386 126.93415936 -109.30078125 122.3359375 C-111.69795875 120.45126002 -114.18084514 119.14108649 -117 118 C-111.74752338 111.63187029 -105.97069295 105.83598991 -100.12939453 100.01586914 C-99.03471237 98.92146948 -97.94025122 97.82684873 -96.84599304 96.73202515 C-93.89206527 93.77781186 -90.93507659 90.82668002 -87.97750711 87.87611318 C-84.88073768 84.78561837 -81.78682232 81.69226896 -78.69259644 78.59922791 C-72.84054223 72.75027494 -66.98594482 66.90387458 -61.1304177 61.05839866 C-54.4609498 54.40012948 -47.79433986 47.73900186 -41.12796235 41.07763875 C-27.42180766 27.38192109 -13.71208787 13.68977726 0 0 Z " fill="#FBFBFB" transform="translate(347,204)"/>
</svg>
