<?xml version="1.0" encoding="UTF-8"?>
<svg version="1.1" xmlns="http://www.w3.org/2000/svg" width="512" height="512">
<path d="M0 0 C1.14035059 -0.00352835 1.14035059 -0.00352835 2.30373856 -0.00712797 C4.87190166 -0.01382795 7.44001427 -0.01335945 10.00818539 -0.01294994 C11.85980858 -0.01624795 13.71143105 -0.01997339 15.56305259 -0.02409142 C20.6676777 -0.03412682 25.77229105 -0.03783069 30.87692463 -0.04048073 C36.37609714 -0.04437926 41.87526029 -0.05395795 47.37442684 -0.0626936 C60.66366204 -0.08247149 73.95289802 -0.09252621 87.24214426 -0.10142139 C93.49747083 -0.10580239 99.75279655 -0.11116971 106.00812244 -0.11641026 C126.79787577 -0.13342438 147.58762879 -0.14794372 168.377388 -0.155159 C169.7221396 -0.15563375 171.06689119 -0.15610964 172.41164279 -0.15658666 C173.0785205 -0.15682303 173.74539822 -0.15705941 174.43248435 -0.15730295 C177.81122857 -0.15850415 181.18997279 -0.1597196 184.568717 -0.16094494 C185.23923997 -0.16118509 185.90976293 -0.16142524 186.60060477 -0.16167267 C208.33649821 -0.16956413 230.07233706 -0.19299203 251.80820667 -0.22550088 C274.78789218 -0.25980727 297.76755515 -0.2795098 320.74726909 -0.28280324 C333.27394835 -0.28496963 345.80054739 -0.29373721 358.3272028 -0.31926441 C368.99513016 -0.34095334 379.66295782 -0.34903073 390.33090473 -0.33929763 C395.77413361 -0.33474763 401.21715671 -0.33667998 406.66035748 -0.35605907 C411.64530119 -0.37365339 416.62988843 -0.3727232 421.61483573 -0.35716178 C423.41639687 -0.35478004 425.21798244 -0.35913855 427.01950616 -0.37099043 C436.18450583 -0.42754116 444.37951008 -0.41929977 452.63097286 4.13422108 C453.53331661 4.61504139 454.43566036 5.0958617 455.36534786 5.59125233 C463.8514516 11.29799263 470.49036794 18.77824411 473.22951531 28.86607885 C474.1543224 34.09102485 473.91112306 39.44519623 473.8983984 44.73376942 C473.90213764 46.12615621 473.90674026 47.5185409 473.91212904 48.91092229 C473.92434067 52.72762624 473.92410075 56.54424242 473.92174029 60.36096144 C473.92133166 64.48107371 473.93237573 68.60115802 473.94185543 72.72125721 C473.95845644 80.7899343 473.96396458 88.85858217 473.96508019 96.92727491 C473.96603111 103.48737295 473.97014362 110.04746135 473.97648144 116.60755634 C473.99409159 135.2145665 474.00332069 153.8215536 474.00182049 172.42857215 C474.00170062 173.93270724 474.00170062 173.93270724 474.00157833 175.46722889 C474.00149657 176.47121276 474.00141481 177.47519662 474.00133057 178.50960425 C474.00051779 194.77801489 474.01965405 211.04633292 474.04785506 227.31471679 C474.07659608 244.02675151 474.09039468 260.73874108 474.08866751 277.45080113 C474.08800402 286.83021567 474.09347841 296.20953312 474.11502361 305.58892536 C474.13325146 313.57522258 474.13756961 321.56137871 474.12400477 329.54768774 C474.11748312 333.61998376 474.11732863 337.69200923 474.13471127 341.76427937 C474.15048299 345.49766073 474.14753709 349.23055793 474.130143 352.96392778 C474.12564022 354.9427826 474.14069822 356.92165269 474.15662229 358.90044856 C474.0641545 370.91407744 471.02519115 380.36311952 462.63097286 389.13422108 C454.86846504 396.23137109 445.75718511 400.29033563 435.26194572 400.26844215 C434.501712 400.27079438 433.74147827 400.27314661 432.95820716 400.27557012 C430.39004407 400.28227011 427.82193145 400.2818016 425.25376034 400.2813921 C423.40213715 400.28469011 421.55051468 400.28841554 419.69889313 400.29253358 C414.59426802 400.30256898 409.48965467 400.30627285 404.38502109 400.30892289 C398.88584858 400.31282142 393.38668543 400.32240011 387.88751888 400.33113575 C374.59828368 400.35091365 361.30904771 400.36096836 348.01980147 400.36986354 C341.7644749 400.37424455 335.50914918 400.37961187 329.25382328 400.38485241 C308.46406995 400.40186653 287.67431693 400.41638587 266.88455772 400.42360115 C265.53980613 400.42407591 264.19505453 400.4245518 262.85030294 400.42502881 C261.84998636 400.42538338 261.84998636 400.42538338 260.82946137 400.4257451 C257.45071715 400.4269463 254.07197293 400.42816175 250.69322872 400.42938709 C250.02270576 400.42962724 249.3521828 400.42986739 248.66134096 400.43011482 C226.92544751 400.43800628 205.18960866 400.46143418 183.45373906 400.49394304 C160.47405354 400.52824942 137.49439057 400.54795195 114.51467663 400.55124539 C101.98799737 400.55341179 89.46139834 400.56217936 76.93474293 400.58770657 C66.26681557 400.60939549 55.5989879 400.61747288 44.93104099 400.60773978 C39.48781211 400.60318979 34.04478901 400.60512213 28.60158825 400.62450123 C23.61664454 400.64209554 18.6320573 400.64116535 13.64710999 400.62560394 C11.84554886 400.6232222 10.04396328 400.6275807 8.24243956 400.63943259 C-0.92256011 400.69598331 -9.11756435 400.68774193 -17.36902714 396.13422108 C-18.27137089 395.65340076 -19.17371464 395.17258045 -20.10340214 394.67718983 C-28.58950587 388.97044952 -35.22842221 381.49019805 -37.96756959 371.4023633 C-38.89237668 366.1774173 -38.64917734 360.82324592 -38.63645267 355.53467274 C-38.64019192 354.14228594 -38.64479453 352.74990125 -38.65018332 351.35751987 C-38.66239494 347.54081591 -38.66215503 343.72419974 -38.65979457 339.90748072 C-38.65938594 335.78736844 -38.67043001 331.66728414 -38.67990971 327.54718494 C-38.69651072 319.47850785 -38.70201885 311.40985998 -38.70313446 303.34116724 C-38.70408539 296.78106921 -38.7081979 290.2209808 -38.71453571 283.66088581 C-38.73214586 265.05387566 -38.74137497 246.44688855 -38.73987477 227.83987001 C-38.73979485 226.83711328 -38.73971494 225.83435656 -38.73963261 224.80121326 C-38.73950996 223.29523746 -38.73950996 223.29523746 -38.73938484 221.75883791 C-38.73857206 205.49042726 -38.75770833 189.22210923 -38.78590934 172.95372537 C-38.81465036 156.24169065 -38.82844896 139.52970108 -38.82672179 122.81764102 C-38.8260583 113.43822649 -38.83153269 104.05890904 -38.85307789 94.67951679 C-38.87130573 86.69321957 -38.87562388 78.70706345 -38.86205904 70.72075441 C-38.8555374 66.64845839 -38.85538291 62.57643293 -38.87276554 58.50416279 C-38.88853727 54.77078143 -38.88559136 51.03788422 -38.86819728 47.30451438 C-38.86369449 45.32565955 -38.8787525 43.34678947 -38.89467657 41.36799359 C-38.80220878 29.35436472 -35.76324542 19.90532263 -27.36902714 11.13422108 C-19.60651931 4.03707107 -10.49523939 -0.02189347 0 0 Z M-17.30652714 24.00922108 C-26.22257921 37.51839088 -22.36902714 44.61570091 -22.36902714 64.13422108 C136.03097286 64.13422108 294.43097286 64.13422108 457.63097286 64.13422108 C459.72107471 40.58874745 459.72107471 40.58874745 450.45960194 21.82557005 C442.50283149 14.46613577 431.87036451 15.56829576 421.76001644 15.61955738 C419.92795882 15.61422902 418.09590558 15.60716167 416.26386064 15.59851032 C411.2411079 15.57989457 406.21865023 15.58618437 401.1958853 15.59666336 C395.77450759 15.60365833 390.35319031 15.58765516 384.93183041 15.57466602 C374.31568287 15.55302592 363.69964253 15.55315296 353.08348019 15.56129157 C344.45486022 15.56759182 335.8262715 15.56645429 327.19765186 15.56001949 C325.96949811 15.55911784 324.74134436 15.55821618 323.47597383 15.55728721 C320.98097694 15.555436 318.48598005 15.55357344 315.99098318 15.55169965 C293.26213638 15.53559376 270.53334679 15.54279663 247.80450315 15.55925279 C225.73417132 15.57505365 203.66399477 15.56165209 181.59368009 15.53191506 C159.61459036 15.50252156 137.63556542 15.49154865 115.65645689 15.50109726 C113.17034115 15.50211981 110.68422539 15.50311442 108.19810963 15.50408077 C106.97490668 15.50455716 105.75170373 15.50503355 104.49143403 15.50552438 C95.87432297 15.50768855 87.25727327 15.49788424 78.64017582 15.48330975 C68.13704872 15.46579308 57.6341006 15.46589437 47.13098056 15.4886614 C41.77273946 15.49980944 36.41481379 15.50295306 31.05658627 15.48436069 C26.14950778 15.46755291 21.24301977 15.47391133 16.33597951 15.49857748 C14.56286824 15.50346014 12.78970931 15.49994682 11.01663793 15.48709004 C0.37336099 15.41549646 -9.60403185 15.59721891 -17.30652714 24.00922108 Z M-22.36902714 80.13422108 C-22.43090214 127.17984608 -22.49277714 174.22547108 -22.55652714 222.69672108 C-22.58383915 237.56420399 -22.61115116 252.4316869 -22.63929081 267.74969959 C-22.64932267 281.04992285 -22.64932267 281.04992285 -22.65535831 294.3501482 C-22.65815889 300.28487673 -22.66917594 306.21952079 -22.68575382 312.15422535 C-22.70484168 318.99758561 -22.71353688 325.84086469 -22.70936199 332.68425178 C-22.70755366 336.1854163 -22.71043319 339.68639935 -22.72667253 343.18753064 C-22.74155218 346.93676039 -22.73801256 350.68553363 -22.72979069 354.43477345 C-22.73852868 355.52688098 -22.74726667 356.61898851 -22.75626945 357.74419022 C-22.70698142 366.08319695 -21.09204771 372.26343696 -15.19765621 378.44287211 C-7.24088576 385.80230638 3.39158122 384.7001464 13.50192928 384.64888477 C15.3339869 384.65421313 17.16604014 384.66128048 18.99808508 384.66993183 C24.02083782 384.68854759 29.04329549 384.68225779 34.06606042 384.6717788 C39.48743813 384.66478382 44.90875541 384.68078699 50.33011532 384.69377613 C60.94626285 384.71541623 71.56230319 384.7152892 82.17846554 384.70715059 C90.80708551 384.70085034 99.43567422 384.70198786 108.06429386 384.70842266 C109.29244761 384.70932432 110.52060137 384.71022597 111.7859719 384.71115495 C114.28096879 384.71300615 116.77596567 384.71486871 119.27096254 384.71674251 C141.99980934 384.7328484 164.72859894 384.72564552 187.45744258 384.70918937 C209.52777441 384.69338851 231.59795095 384.70679007 253.66826563 384.73652709 C275.64735537 384.7659206 297.62638031 384.77689351 319.60548884 384.76734489 C322.09160458 384.76632234 324.57772033 384.76532773 327.0638361 384.76436138 C328.28703905 384.76388499 329.51024199 384.7634086 330.7705117 384.76291778 C339.38762275 384.76075361 348.00467246 384.77055791 356.62176991 384.78513241 C367.12489701 384.80264907 377.62784512 384.80254778 388.13096517 384.77978075 C393.48920626 384.76863271 398.84713193 384.7654891 404.20535946 384.78408146 C409.11243794 384.80088924 414.01892596 384.79453082 418.92596621 384.76986467 C420.69907748 384.76498202 422.47223641 384.76849534 424.2453078 384.78135211 C434.28940087 384.84891519 443.28237769 384.74059366 451.22448677 377.72700697 C457.69127644 370.66453608 458.06441293 363.51815975 457.99173641 354.43477345 C457.99558849 352.67819416 457.99558849 352.67819416 457.99951839 350.88612843 C458.00361095 347.64230612 457.99423671 344.39884535 457.97919105 341.15506573 C457.96606612 337.60088509 457.97047653 334.04671763 457.97264481 330.49251938 C457.97423813 323.59705397 457.96040238 316.701706 457.94114082 309.80627074 C457.91952336 301.82829572 457.91715562 293.85039103 457.91478634 285.87238026 C457.89904145 264.81380861 457.85715804 243.75526308 457.81847286 222.69672108 C457.72566036 152.12828358 457.72566036 152.12828358 457.63097286 80.13422108 C299.23097286 80.13422108 140.83097286 80.13422108 -22.36902714 80.13422108 Z " fill="#a4c2f4" transform="translate(38.36902713775635,55.86577892303467)"/>
<path d="M0 0 C1.09231682 -0.01043099 2.18463364 -0.02086198 3.31005096 -0.03160906 C4.50964699 -0.02268617 5.70924301 -0.01376328 6.94519043 -0.00457001 C8.2198542 -0.01080997 9.49451797 -0.01704993 10.80780792 -0.02347898 C14.3484819 -0.04020703 17.88872569 -0.03191053 21.4294014 -0.01953411 C25.24678745 -0.0105 29.06409848 -0.02444516 32.88146973 -0.0354538 C40.36070617 -0.05326121 47.83978225 -0.04938919 55.31902504 -0.03780323 C61.39633121 -0.0287779 67.47359237 -0.027541 73.55090332 -0.0318985 C74.41511918 -0.03251143 75.27933503 -0.03312436 76.16973925 -0.03375587 C77.9252542 -0.03503474 79.68076914 -0.03633159 81.43628407 -0.03764623 C97.90643425 -0.04905854 114.37649546 -0.03592814 130.84663105 -0.01444477 C144.98564854 0.00342681 159.12453468 0.00032289 173.2635498 -0.01811981 C189.67385777 -0.03951506 206.08408769 -0.04795984 222.49440765 -0.03567076 C224.24354552 -0.03439653 225.9926834 -0.03313905 227.74182129 -0.0318985 C229.0328107 -0.03097285 229.0328107 -0.03097285 230.3498807 -0.03002849 C236.42146455 -0.02657155 242.49299899 -0.03241134 248.5645752 -0.04181671 C255.96157473 -0.05302314 263.35840443 -0.05002534 270.75538445 -0.02869374 C274.5310997 -0.01816491 278.30653157 -0.01409235 282.08224487 -0.02729034 C286.1709225 -0.04136639 290.25888158 -0.02458551 294.34753418 -0.00457001 C296.14692822 -0.01795434 296.14692822 -0.01795434 297.98267365 -0.03160906 C299.62114887 -0.01596257 299.62114887 -0.01596257 301.29272461 0 C302.70886677 0.00097411 302.70886677 0.00097411 304.15361786 0.00196791 C307.42815101 0.66061544 308.62384391 1.88995079 310.6463623 4.50336456 C311.11554913 8.25685918 311.17772611 10.5418491 309.3338623 13.87836456 C306.36008999 16.74199716 303.4028972 16.62954583 299.48103523 16.63479233 C298.40525974 16.63863347 297.32948426 16.64247462 296.22110951 16.64643216 C295.03484656 16.64556568 293.84858361 16.6446992 292.62637329 16.64380646 C291.36960372 16.64677758 290.11283415 16.6497487 288.81798065 16.65280986 C285.32272295 16.66088758 281.82748577 16.66266986 278.33221984 16.66340733 C274.56526496 16.66525651 270.79832078 16.67280311 267.03137207 16.67954254 C258.79180883 16.69313133 250.55225045 16.69915128 242.31267786 16.7035532 C237.16990588 16.7063144 232.02713579 16.7105515 226.88436508 16.71505737 C212.65104096 16.72725018 198.41771835 16.73754984 184.18438911 16.74093246 C182.81764748 16.74126181 182.81764748 16.74126181 181.42329489 16.74159782 C180.05325132 16.74192523 180.05325132 16.74192523 178.6555301 16.74225926 C176.80465515 16.74270273 174.95378021 16.7431493 173.10290527 16.74359894 C172.18480398 16.74382037 171.26670269 16.7440418 170.32078014 16.74426994 C155.43838219 16.74821944 140.55603315 16.76567806 125.67365409 16.78895846 C110.40141543 16.81265632 95.12920132 16.82513358 79.85694396 16.82630038 C71.27915589 16.82721797 62.70143158 16.83299125 54.12366104 16.85112 C46.82076188 16.86649979 39.51794618 16.87165398 32.2150339 16.86338189 C28.48784029 16.85946798 24.76081486 16.86044089 21.03364182 16.87443924 C16.99574514 16.88946619 12.9582295 16.88133378 8.9203186 16.87085724 C7.73851709 16.87891364 6.55671559 16.88697005 5.33910191 16.89527059 C4.25811093 16.88868074 3.17711994 16.8820909 2.06337166 16.87530136 C1.13126558 16.87589845 0.19915951 16.87649554 -0.7611922 16.87711072 C-3.90108706 16.42444021 -5.7934877 15.34727045 -8.3536377 13.50336456 C-9.89950645 10.41162705 -9.64723291 7.90906904 -9.3536377 4.50336456 C-6.51316285 0.80283296 -4.60369608 0.00316672 0 0 Z " fill="#a4c2f4" transform="translate(121.3536376953125,87.49663543701172)"/>
<path d="M0 0 C1.22847656 -0.01611328 2.45695312 -0.03222656 3.72265625 -0.04882812 C15.392793 -0.05508222 23.63473026 2.04565841 32.125 10.3125 C39.80474016 19.60039087 40.43994909 28.02398343 40.4609375 39.734375 C40.4709227 41.67802948 40.4709227 41.67802948 40.48110962 43.66094971 C40.49304029 46.39769828 40.49679495 49.13432104 40.49560547 51.87109375 C40.4954028 55.34861931 40.52266805 58.82532286 40.55714989 62.30265427 C40.58497043 65.65490394 40.5835735 69.0070118 40.5859375 72.359375 C40.60030853 73.59306824 40.61467957 74.82676147 40.62948608 76.09783936 C40.57135159 87.22559885 38.20848967 96.21125753 30.41796875 104.3671875 C21.9554877 111.54660072 13.33413614 112.54535492 2.63061523 112.60766602 C1.26429838 112.61911785 -0.10197618 112.63946077 -1.46801758 112.66918945 C-13.86358717 112.93862563 -22.74084212 111.25301382 -31.89453125 102.6015625 C-37.47175182 96.15530756 -39.97116371 88.93261333 -40.05200195 80.52514648 C-40.06483719 79.3597081 -40.07767242 78.19426971 -40.09089661 76.99351501 C-40.09828354 75.736241 -40.10567047 74.47896698 -40.11328125 73.18359375 C-40.121353 71.88357925 -40.12942474 70.58356476 -40.13774109 69.24415588 C-40.15274712 66.48951348 -40.1625929 63.73489661 -40.17016602 60.98022461 C-40.18117927 57.4791202 -40.21552715 53.97866034 -40.25533772 50.47778225 C-40.28804164 47.10891432 -40.2923037 43.74010797 -40.30078125 40.37109375 C-40.31828934 39.12798935 -40.33579742 37.88488495 -40.35383606 36.60411072 C-40.32752733 25.92525718 -38.35504549 16.91241923 -30.796875 9.03125 C-21.3900483 0.61864076 -12.2215587 -0.03186016 0 0 Z M-22.06054688 24.20068359 C-24.90399958 29.46438263 -24.44675083 35.16344737 -24.40625 41 C-24.41199036 42.82470825 -24.41199036 42.82470825 -24.41784668 44.6862793 C-24.42056178 47.25147329 -24.41322895 49.81669516 -24.39648438 52.38183594 C-24.37507128 56.29945838 -24.39630214 60.21524684 -24.421875 64.1328125 C-24.41923166 66.63021237 -24.41410655 69.12761109 -24.40625 71.625 C-24.41434692 72.79184326 -24.42244385 73.95868652 -24.43078613 75.16088867 C-24.35491948 81.76783165 -23.86020521 85.96229796 -19.875 91.3125 C-13.69052595 97.04445156 -8.08952465 96.52461434 -0.0625 96.5625 C1.55881836 96.5934375 1.55881836 96.5934375 3.21289062 96.625 C9.78517981 96.65727644 14.69311679 96.44276877 19.76953125 91.8125 C23.22590627 87.37354345 24.24551453 84.49149931 24.30200195 78.94238281 C24.31483719 77.84404114 24.32767242 76.74569946 24.34089661 75.61407471 C24.34828354 74.4265863 24.35567047 73.2390979 24.36328125 72.015625 C24.371353 70.79349304 24.37942474 69.57136108 24.38774109 68.31219482 C24.40158129 65.72311827 24.41230372 63.13402348 24.42016602 60.54492188 C24.43737119 56.59209466 24.48125912 52.64010535 24.52539062 48.6875 C24.53551825 46.17188115 24.54403414 43.65625519 24.55078125 41.140625 C24.56828934 39.96123352 24.58579742 38.78184204 24.60383606 37.56671143 C24.58372576 29.93005776 23.90572867 25.17378397 18.40625 19.55712891 C12.4667249 15.745608 7.05944251 15.55876654 0.125 15.6875 C-0.9165625 15.66816406 -1.958125 15.64882812 -3.03125 15.62890625 C-11.48003936 15.68224457 -16.88691758 17.36377178 -22.06054688 24.20068359 Z " fill="#a4c2f4" transform="translate(255.875,223.6875)"/>
<path d="M0 0 C4.10703441 0.85563217 5.55401113 2.24378009 8 5.625 C8.36648153 10.4949983 7.72053416 14.3261709 6.1640625 18.92749023 C5.76364746 20.12820663 5.36323242 21.32892303 4.95068359 22.56602478 C4.50901574 23.85529211 4.06711585 25.14447998 3.625 26.43359375 C3.17567553 27.76849476 2.72728485 29.10371041 2.27978516 30.43922424 C1.10539569 33.93579818 -0.08154949 37.42798014 -1.27124023 40.91937256 C-2.48537532 44.48988555 -3.68759273 48.06440583 -4.890625 51.63867188 C-7.24762649 58.63855993 -9.62423637 65.63134582 -12 72.625 C-0.12 72.625 11.76 72.625 24 72.625 C23.96519531 67.91863281 23.93039062 63.21226562 23.89453125 58.36328125 C23.87919911 55.37824277 23.86475704 52.39325297 23.85351562 49.40820312 C23.83559558 44.67217909 23.81441653 39.93632937 23.77368164 35.20043945 C23.74103922 31.38140645 23.72313675 27.56256044 23.71536827 23.74339867 C23.70983349 22.28776291 23.69902528 20.83213715 23.68280983 19.37658119 C23.66096979 17.33457097 23.65803569 15.29332929 23.65942383 13.2512207 C23.65276199 12.08984085 23.64610016 10.928461 23.63923645 9.73188782 C24.04094307 6.27239915 24.92940732 4.39879946 27 1.625 C29.85324437 0.19837781 31.83454549 0.31466132 35 0.625 C37.66374207 2.22601318 37.66374207 2.22601318 40 4.625 C40.60127258 7.68756104 40.60127258 7.68756104 40.56762695 11.32128906 C40.56835709 11.98511597 40.56908722 12.64894287 40.56983948 13.33288574 C40.56636533 15.5196401 40.52751961 17.70424449 40.48828125 19.890625 C40.47895233 21.40947303 40.47183659 22.92833613 40.46684265 24.44720459 C40.44777854 28.43918614 40.39868435 32.43025381 40.34332275 36.421875 C40.29211668 40.49727007 40.26932581 44.57281325 40.24414062 48.6484375 C40.19056367 56.64104376 40.1052596 64.6329081 40 72.625 C40.75708252 72.60759766 41.51416504 72.59019531 42.29418945 72.57226562 C43.28636475 72.55873047 44.27854004 72.54519531 45.30078125 72.53125 C46.28473877 72.51384766 47.26869629 72.49644531 48.2824707 72.47851562 C51 72.625 51 72.625 54.1875 74.125 C56.37783608 77.14615322 56.55928288 78.97783353 56.56640625 82.625 C55.72788996 85.58582992 54.4485834 86.78957762 52 88.625 C48.984375 89.015625 48.984375 89.015625 45.75 88.875 C44.67234375 88.83890625 43.5946875 88.8028125 42.484375 88.765625 C41.66453125 88.71921875 40.8446875 88.6728125 40 88.625 C40.0314209 89.50236816 40.0314209 89.50236816 40.06347656 90.39746094 C40.14680115 93.05646465 40.19870897 95.71519355 40.25 98.375 C40.28351563 99.29539062 40.31703125 100.21578125 40.3515625 101.1640625 C40.45020288 107.97024843 40.45020288 107.97024843 38.203125 111.23828125 C34.98804725 113.26195607 32.71939938 113.08992492 29 112.625 C25.8149643 110.86484869 25.16703028 110.12609084 24 106.625 C23.91978001 105.21675107 23.89234023 103.80502769 23.90234375 102.39453125 C23.90556641 101.59208984 23.90878906 100.78964844 23.91210938 99.96289062 C23.92467773 98.71282227 23.92467773 98.71282227 23.9375 97.4375 C23.94201172 96.59251953 23.94652344 95.74753906 23.95117188 94.87695312 C23.96294597 92.79293845 23.9808811 90.70896023 24 88.625 C23.05492584 88.63499275 23.05492584 88.63499275 22.09075928 88.64518738 C15.53728332 88.71152244 8.98390263 88.75679307 2.43017578 88.78979492 C-0.01615268 88.8048877 -2.46245407 88.82536402 -4.90869141 88.85131836 C-8.42357057 88.88767918 -11.93809218 88.90472161 -15.453125 88.91796875 C-16.5480426 88.93345261 -17.64296021 88.94893646 -18.77105713 88.96488953 C-19.79181335 88.96511612 -20.81256958 88.96534271 -21.86425781 88.96557617 C-23.20994843 88.97556892 -23.20994843 88.97556892 -24.58282471 88.98576355 C-27.69101996 88.52186523 -28.90911894 88.00066312 -31 85.625 C-32.37331917 79.78661065 -31.89759842 75.93678702 -29.98974609 70.18676758 C-29.76383789 69.49137375 -29.53792969 68.79597992 -29.30517578 68.07951355 C-28.56091838 65.80375446 -27.79312099 63.53680508 -27.0234375 61.26953125 C-26.49489253 59.6790201 -25.9673719 58.08816822 -25.44082642 56.49699402 C-24.33654544 53.17248037 -23.22064879 49.85216559 -22.09619141 46.53442383 C-20.65905684 42.29133391 -19.25035859 38.0394444 -17.85010338 33.78406239 C-16.76639377 30.50061704 -15.66825416 27.22214041 -14.5656929 23.94498253 C-14.04071316 22.37919762 -13.52006364 20.81195369 -13.00391769 19.24323463 C-12.27931476 17.04863248 -11.5356149 14.86142735 -10.78662109 12.67504883 C-10.36835052 11.43120926 -9.95007996 10.18736969 -9.51913452 8.90583801 C-7.39883858 4.32668625 -5.0742743 1.05714048 0 0 Z " fill="#a4c2f4" transform="translate(336,223.375)"/>
<path d="M0 0 C2.77709085 1.95146924 3.79306688 3.31780291 4.77758789 6.56347656 C5.08290717 11.28101134 3.76528695 14.92941673 2.24609375 19.359375 C1.94816422 20.26262512 1.65023468 21.16587524 1.34327698 22.09649658 C0.38717472 24.98532777 -0.58728422 27.86757217 -1.5625 30.75 C-2.19198042 32.64151979 -2.82024701 34.53344398 -3.44726562 36.42578125 C-4.98387607 41.05379643 -6.53526599 45.67668615 -8.09161377 50.2980957 C-9.55790231 54.65942481 -11.01128605 59.02504004 -12.46484375 63.390625 C-13.30144531 65.90171875 -14.13804687 68.4128125 -15 71 C-3.12 71.33 8.76 71.66 21 72 C20.91298828 64.83216797 20.91298828 64.83216797 20.82421875 57.51953125 C20.79866535 54.48889827 20.7745957 51.45839844 20.75585938 48.42773438 C20.72599017 43.61910354 20.69068843 38.81094954 20.62280273 34.00268555 C20.56840291 30.12526419 20.53856309 26.24835425 20.52561378 22.37058067 C20.51638798 20.89256426 20.49837142 19.41457529 20.47134972 17.93677711 C20.43494912 15.86324626 20.43005861 13.79181746 20.43237305 11.71801758 C20.41571846 9.94930046 20.41571846 9.94930046 20.39872742 8.14485168 C21.18210902 4.04751045 22.77719555 2.5620202 26 0 C29.50412619 -0.57210224 31.22404484 -0.44040698 34.3125 1.3125 C36.68440243 3.68440243 36.98167231 5.56314233 37.12025452 8.86637878 C37.11803391 10.03219986 37.11581329 11.19802094 37.11352539 12.39916992 C37.11367142 13.04334366 37.11381744 13.6875174 37.1139679 14.35121155 C37.11327195 16.47766502 37.10549448 18.6040306 37.09765625 20.73046875 C37.09579094 22.20591687 37.09436757 23.68136561 37.09336853 25.15681458 C37.08955226 29.03825595 37.07972956 32.91965985 37.06866455 36.80108643 C37.05843131 40.76256808 37.05386681 44.72405581 37.04882812 48.68554688 C37.0381065 56.45704833 37.02104075 64.22851891 37 72 C37.67546875 71.97679687 38.3509375 71.95359375 39.046875 71.9296875 C39.93890625 71.91164063 40.8309375 71.89359375 41.75 71.875 C42.63171875 71.85179687 43.5134375 71.82859375 44.421875 71.8046875 C47.14718253 72.01115019 48.69896221 72.55992958 51 74 C53.0815902 76.67633026 52.99587591 78.11753668 52.875 81.5625 C52 85 52 85 50.3046875 86.703125 C47.42231027 88.32507287 45.53454932 88.30480533 42.25 88.1875 C40.77273437 88.14689453 40.77273437 88.14689453 39.265625 88.10546875 C38.51796875 88.07066406 37.7703125 88.03585937 37 88 C37.05220703 89.86205078 37.05220703 89.86205078 37.10546875 91.76171875 C37.13361584 93.40363226 37.16091501 95.04556046 37.1875 96.6875 C37.21263672 97.50412109 37.23777344 98.32074219 37.26367188 99.16210938 C37.32170486 103.94015822 37.14903871 107.13423093 34 111 C30.90826248 112.54586876 28.40570448 112.29359521 25 112 C22.7890625 110.62109375 22.7890625 110.62109375 21 108 C20.50841647 104.57069201 20.6241812 101.20517772 20.75 97.75 C20.76804688 96.81414062 20.78609375 95.87828125 20.8046875 94.9140625 C20.85174327 92.60832985 20.91746287 90.30469055 21 88 C20.37217117 88.01110306 19.74434235 88.02220612 19.0974884 88.03364563 C12.56017286 88.14430481 6.02312354 88.21969472 -0.51489258 88.2746582 C-2.95445564 88.29979496 -5.39394345 88.33390946 -7.83325195 88.37719727 C-11.34084646 88.43788229 -14.8474449 88.466219 -18.35546875 88.48828125 C-19.44522507 88.51408768 -20.53498138 88.5398941 -21.65776062 88.56648254 C-26.42576159 88.56824672 -29.16132548 88.54382851 -33.2277832 85.90698242 C-35.46227516 82.24172609 -35.27046009 80.25694187 -35 76 C-34.15374756 72.5790863 -34.15374756 72.5790863 -32.95214844 68.96655273 C-32.73424149 68.30217194 -32.51633453 67.63779114 -32.29182434 66.95327759 C-31.57472611 64.77644918 -30.84258941 62.60504171 -30.109375 60.43359375 C-29.6026345 58.91119378 -29.09656205 57.38857129 -28.59112549 55.86573792 C-27.53182486 52.68204336 -26.46516153 49.50094132 -25.39306641 46.3215332 C-24.02360134 42.25860039 -22.67162676 38.19010559 -21.32500839 34.11955166 C-20.28328277 30.97652597 -19.23282285 27.83647385 -18.17969513 24.69725227 C-17.67800885 23.1986824 -17.178881 21.69925338 -16.68242645 20.19894218 C-15.98550861 18.09758619 -15.27702019 16.00047829 -14.56542969 13.90405273 C-14.1657196 12.71271225 -13.76600952 11.52137177 -13.35418701 10.29393005 C-10.40828426 3.12830409 -8.07839057 -0.80783906 0 0 Z " fill="#a4c2f4" transform="translate(155,224)"/>
<path d="M0 0 C1.58167969 -0.04350586 1.58167969 -0.04350586 3.1953125 -0.08789062 C4.21109375 -0.09626953 5.226875 -0.10464844 6.2734375 -0.11328125 C7.20333496 -0.12786377 8.13323242 -0.14244629 9.09130859 -0.1574707 C12.37974086 0.45249578 13.55341226 1.74753513 15.625 4.3125 C16.33382303 7.22034881 15.96471789 9.255039 15.625 12.3125 C13.81336733 14.98681489 12.74738923 15.27170359 9.625 16.3125 C6.50436425 16.56324502 3.37968234 16.54370311 0.25 16.5625 C-0.60078125 16.583125 -1.4515625 16.60375 -2.328125 16.625 C-7.14875738 16.65503509 -10.50869853 16.53441789 -14.375 13.3125 C-15.875 10.5 -15.875 10.5 -16.375 7.3125 C-13.13032577 -1.28588672 -8.20267537 0.07466027 0 0 Z " fill="#a4c2f4" transform="translate(464.375,87.6875)"/>
<path d="M0 0 C2.375 1.125 2.375 1.125 4 3 C5.16379881 6.56898301 5.30920437 8.28394777 3.8125 11.75 C1.88971429 14.1369064 0.93359496 15.16183001 -2 16 C-5.38978773 15.86164132 -7.28778346 15.61725434 -9.875 13.375 C-11.46134558 10.02604821 -11.45746657 7.65973254 -11 4 C-8.09912777 -0.52536068 -5.13093735 -0.64136717 0 0 Z " fill="#a4c2f4" transform="translate(91,88)"/>
<path d="M0 0 C2.71604883 1.92982417 3.74692606 3.34200775 4.9375 6.4375 C5.02066111 9.8471054 4.08657139 11.33782271 2 14 C-0.5660206 15.94663632 -1.81116974 16.00770736 -5.0625 15.875 C-8 15 -8 15 -9.875 13.375 C-11.46134558 10.02604821 -11.45746657 7.65973254 -11 4 C-8.11188513 -0.5054592 -5.11821063 -0.73117295 0 0 Z " fill="#a4c2f4" transform="translate(67,88)"/>
<path d="M0 0 C2.44053024 1.79828544 3.63399544 3.18956132 4.875 5.9375 C5.05132235 8.84681875 4.43082215 10.46354255 3 13 C0.09651429 15.41957143 -1.32650931 16.02693963 -5.125 15.875 C-9.52810903 14.53492334 -9.52810903 14.53492334 -11 12 C-11.75471698 5.20754717 -11.75471698 5.20754717 -9.4375 1.5 C-6.05111671 -0.58392818 -3.90614682 -0.55802097 0 0 Z " fill="#a4c2f4" transform="translate(43,88)"/>
</svg>
