<svg xmlns="http://www.w3.org/2000/svg" version="1.0" preserveAspectRatio="xMidYMid meet" viewBox="83.08 109.08 277.92 78.86">
<metadata>
Created by potrace 1.10, written by Peter Selinger 2001-2011
</metadata>
<g transform="translate(0.000000,300.000000) scale(0.100000,-0.100000)" fill="#a4c2f4" stroke="none">
<path d="M905 1898 c-27 -5 -55 -14 -62 -20 -20 -16 -15 -58 12 -113 24 -48 25 -57 25 -257 0 -202 0 -207 22 -222 33 -23 103 -21 128 4 16 16 20 33 20 95 0 84 -3 81 92 89 86 7 187 88 208 167 29 106 -9 200 -100 247 -39 20 -58 22 -170 21 -69 -1 -147 -6 -175 -11z m225 -54 l0 -45 92 2 92 2 13 -29 c7 -16 12 -41 13 -56 0 -27 -2 -28 -54 -28 -52 0 -54 1 -58 30 -5 30 -4 30 46 32 l51 2 -50 3 c-27 2 -64 10 -82 18 -38 18 -144 20 -161 3 -7 -7 -12 -25 -12 -40 0 -28 -1 -28 -61 -28 -52 0 -60 2 -57 18 2 9 11 16 20 14 9 -1 20 3 24 9 5 9 -3 11 -29 6 -26 -4 -37 -2 -41 10 -10 26 -7 33 19 33 14 0 25 -4 25 -10 0 -5 4 -10 10 -10 5 0 7 7 4 15 -4 9 -19 15 -39 15 -30 0 -45 13 -45 40 0 12 116 30 253 38 26 2 27 0 27 -44z m133 8 c56 -32 46 -42 -42 -42 l-81 0 0 39 0 38 47 -8 c25 -5 60 -17 76 -27z m-71 -111 c35 -45 -23 -111 -97 -111 -25 0 -45 5 -48 13 -9 24 1 110 14 118 25 15 113 1 131 -20z m-172 -73 c0 -27 -1 -28 -60 -28 -56 0 -60 1 -60 23 0 32 0 32 64 32 54 0 56 -1 56 -27z m305 -25 c-28 -66 -91 -121 -157 -137 -28 -6 -28 -6 -28 47 0 47 3 55 24 65 13 6 32 22 43 36 16 22 26 25 76 26 l57 0 -15 -37z m-305 -28 c0 -12 13 -15 55 -15 l55 0 0 -50 0 -50 -55 0 -55 0 0 -45 0 -45 -61 0 c-60 0 -60 0 -57 27 3 26 5 27 49 25 26 -2 50 1 54 7 4 7 -12 11 -49 11 l-56 0 0 75 0 75 60 0 c47 0 60 -3 60 -15z m0 -262 l0 -48 -57 1 -58 2 -3 46 -3 46 60 0 61 0 0 -47z"/>
<path d="M1055 1860 c-3 -5 -3 -15 1 -21 4 -8 -11 -10 -51 -8 -39 3 -60 0 -62 -8 -3 -8 11 -10 52 -6 43 5 59 3 66 -8 6 -10 9 -2 9 24 0 38 -4 45 -15 27z"/>
<path d="M960 1764 c0 -9 5 -14 12 -12 18 6 21 28 4 28 -9 0 -16 -7 -16 -16z"/>
<path d="M1207 1594 c-9 -10 2 -24 19 -24 8 0 14 7 14 15 0 15 -21 21 -33 9z"/>
<path d="M1097 1583 c-8 -18 -7 -73 3 -73 5 0 10 18 10 40 0 38 -4 49 -13 33z"/>
<path d="M925 1551 c-3 -5 -1 -12 5 -16 5 -3 10 1 10 9 0 18 -6 21 -15 7z"/>
<path d="M960 1544 c0 -12 3 -14 13 -6 7 6 35 12 62 15 48 3 48 3 -12 5 -52 2 -63 -1 -63 -14z"/>
<path d="M1835 1903 c-11 -3 -23 -8 -28 -12 -4 -4 -8 -70 -9 -147 -2 -162 -8 -193 -27 -147 -46 111 -192 165 -305 113 -53 -24 -121 -98 -130 -141 -14 -69 -7 -130 21 -179 26 -47 26 -48 9 -84 -37 -79 8 -112 84 -62 32 21 47 25 83 20 85 -12 204 57 238 137 15 38 29 27 29 -21 0 -29 7 -48 29 -72 24 -28 36 -32 90 -36 78 -6 91 4 91 72 0 46 -3 53 -30 68 l-30 17 0 224 c0 168 -3 227 -12 234 -16 13 -77 22 -103 16z m95 -68 l0 -45 -55 0 -55 0 0 45 0 45 55 0 55 0 0 -45z m0 -115 c0 -50 -3 -60 -17 -61 -17 -1 -17 -2 -1 -6 15 -4 18 -21 20 -131 l3 -127 28 -3 c15 -2 27 -9 27 -18 0 -10 -14 -14 -55 -14 l-55 0 0 65 c0 65 0 65 -27 64 -23 -1 -24 -2 -6 -6 20 -4 22 -11 25 -66 l3 -62 58 -3 c52 -3 57 -5 57 -27 0 -49 -102 -45 -145 7 -24 29 -25 34 -25 179 l0 149 30 0 c27 0 30 3 29 33 -2 30 -2 30 -6 5 -3 -22 -10 -28 -29 -28 -22 0 -24 3 -24 55 l0 55 55 0 55 0 0 -60z m-270 -40 c63 -32 110 -111 110 -185 0 -17 -12 -55 -26 -84 -43 -86 -143 -136 -228 -113 -28 8 -38 7 -47 -5 -14 -16 -51 -37 -86 -47 -21 -7 -21 -6 6 47 l28 54 -22 28 c-26 31 -45 89 -45 131 1 66 60 151 125 180 46 20 139 17 185 -6z"/>
<path d="M1862 1619 c2 -6 8 -10 13 -10 5 0 11 4 13 10 2 6 -4 11 -13 11 -9 0 -15 -5 -13 -11z"/>
<path d="M1535 1661 c-3 -5 -1 -12 5 -16 5 -3 10 -19 10 -36 0 -24 -4 -29 -25 -29 -18 0 -26 7 -31 25 -4 16 -13 25 -25 25 -27 0 -23 -25 6 -44 22 -15 24 -19 11 -31 -19 -19 -35 -19 -57 1 -19 17 -39 12 -39 -11 0 -9 14 -15 37 -17 32 -3 37 -6 38 -30 1 -29 -1 -30 -45 -32 -32 -1 -34 -30 -2 -34 12 -2 22 1 22 6 0 19 33 22 46 5 12 -16 10 -21 -13 -40 -17 -14 -24 -27 -19 -38 9 -25 29 -13 38 23 9 33 15 36 42 26 18 -7 22 -44 6 -60 -14 -14 5 -38 25 -30 17 6 17 10 -1 67 -4 11 2 18 17 22 28 7 39 1 39 -22 0 -22 25 -45 40 -36 18 11 11 35 -14 45 -34 12 -37 22 -16 47 l18 23 26 -21 c15 -12 34 -18 42 -15 26 10 10 31 -27 36 -26 4 -35 10 -37 29 -4 28 14 43 45 36 25 -6 40 12 24 28 -7 7 -20 5 -45 -8 -32 -18 -35 -18 -52 -1 -9 10 -28 22 -41 27 -22 8 -23 10 -9 43 8 19 12 37 8 40 -9 9 -40 7 -47 -3z m73 -124 c18 -14 15 -62 -5 -79 -30 -25 -49 -27 -82 -7 -49 30 -41 90 14 101 24 5 56 -1 73 -15z"/>
<path d="M1630 1621 c0 -11 -4 -23 -10 -26 -5 -3 -10 -11 -10 -17 0 -6 8 -4 18 5 10 10 24 17 31 17 19 0 8 34 -12 38 -11 2 -17 -3 -17 -17z"/>
<path d="M2939 1721 c-42 -14 -72 -32 -104 -62 l-31 -29 4 33 c3 30 0 35 -25 46 -33 14 -81 8 -98 -11 -7 -7 -22 -42 -34 -78 -48 -141 -52 -145 -75 -72 -29 91 -47 137 -62 152 -20 20 -200 25 -230 5 -13 -8 -35 -50 -55 -104 -18 -50 -38 -90 -44 -88 -5 2 -23 44 -40 93 -33 98 -53 117 -115 110 -19 -3 -38 -5 -42 -5 -5 -1 -8 -5 -8 -11 0 -5 24 -10 54 -10 l53 0 27 -74 c14 -41 26 -77 26 -81 0 -4 -13 -4 -30 0 -20 4 -30 3 -30 -5 0 -7 13 -10 33 -8 30 3 33 0 54 -52 12 -30 22 -49 22 -42 1 8 18 12 51 12 28 0 50 -2 50 -4 0 -1 -5 -17 -11 -35 l-11 -31 -82 0 -82 0 -34 92 c-19 51 -36 96 -38 100 -2 4 6 8 17 8 12 0 21 5 21 10 0 6 -10 8 -23 5 -20 -5 -25 -1 -35 32 -13 44 -37 81 -47 72 -3 -4 14 -58 38 -120 24 -63 52 -136 62 -164 10 -27 22 -55 26 -60 15 -21 17 -64 4 -75 -8 -7 -28 -9 -47 -5 -42 8 -56 -6 -64 -67 -6 -40 -4 -46 21 -62 18 -12 43 -17 78 -15 90 4 127 34 167 136 12 32 31 77 41 100 11 24 19 46 19 51 0 12 71 186 79 195 5 4 13 -5 19 -20 5 -15 27 -73 47 -128 70 -192 56 -176 152 -180 56 -2 72 16 113 132 18 51 36 91 40 88 4 -2 10 -23 13 -45 9 -69 88 -164 143 -173 10 -1 24 -5 29 -8 16 -10 143 7 162 22 85 63 113 114 113 199 0 99 -41 169 -123 211 -44 23 -120 32 -158 20z m166 -55 c44 -27 82 -78 92 -128 5 -28 5 -28 -45 -28 -41 0 -52 4 -57 20 -10 30 -63 70 -95 70 -16 0 -30 3 -33 8 -2 4 -2 1 -1 -5 2 -7 -3 -13 -11 -13 -9 0 -15 14 -18 43 l-4 42 0 -47 c1 -43 -21 -88 -42 -88 -3 0 -4 25 -3 56 3 39 1 54 -7 50 -6 -4 -11 -29 -11 -57 l0 -49 -39 0 c-39 0 -40 0 -30 28 14 40 79 101 125 118 52 19 126 11 179 -20z m-715 19 c0 -2 -5 -16 -12 -31 -10 -22 -17 -25 -43 -21 -18 3 -38 1 -46 -4 -9 -6 0 -9 29 -9 23 0 42 -2 42 -4 0 -1 -5 -16 -10 -32 -10 -27 -14 -29 -58 -27 -26 1 -39 0 -29 -3 13 -4 17 -17 19 -52 l1 -47 6 45 c4 33 11 46 25 48 16 3 18 0 12 -22 -18 -72 -22 -76 -77 -76 -45 0 -50 2 -44 18 4 9 22 59 41 110 18 51 36 97 39 103 6 9 105 13 105 4z m136 -69 c22 -65 23 -70 6 -83 -16 -13 -15 -14 5 -10 19 4 24 -3 40 -54 19 -63 28 -72 36 -36 3 12 14 47 25 77 l20 55 47 3 c43 3 47 1 40 -15 -3 -10 -24 -67 -46 -128 -41 -114 -51 -131 -67 -121 -11 7 25 108 40 114 14 6 9 22 -7 22 -8 0 -15 -6 -15 -14 0 -8 -9 -38 -20 -68 -20 -50 -23 -53 -56 -53 -49 0 -76 47 -34 58 21 5 29 47 9 47 -6 0 -9 -9 -6 -20 4 -15 0 -20 -13 -20 -14 0 -26 21 -49 86 -17 47 -31 87 -31 88 0 2 9 6 20 9 15 4 20 14 20 40 0 20 6 38 13 41 6 3 3 5 -8 3 -15 -2 -21 -11 -23 -40 -2 -22 -8 -37 -16 -37 -12 0 -56 96 -56 121 0 6 23 9 52 7 l51 -3 23 -69z m264 65 c0 -32 -14 -41 -61 -41 -48 0 -48 0 -37 25 9 21 18 25 55 25 23 0 43 -4 43 -9z m-24 -67 c-3 -9 -6 -20 -6 -25 0 -5 -22 -9 -50 -9 -49 0 -50 0 -38 25 9 21 18 25 56 25 36 0 43 -3 38 -16z m284 -66 c29 -32 27 -81 -6 -107 -15 -12 -37 -21 -49 -21 -37 0 -75 37 -75 73 0 67 84 104 130 55z m-157 -60 c8 -59 45 -93 101 -93 52 0 91 30 101 76 6 27 10 29 56 29 55 0 57 -5 38 -73 -13 -49 -73 -110 -100 -102 -11 4 -19 2 -19 -5 0 -6 5 -8 12 -4 6 4 8 3 4 -4 -8 -14 -89 -26 -121 -18 -20 5 -25 13 -25 36 0 29 1 30 50 30 48 0 50 -1 51 -27 l2 -28 4 28 c3 19 10 27 24 27 10 0 19 3 19 8 0 4 -35 6 -77 5 l-78 -2 -3 -35 c-3 -36 -3 -36 -30 -22 -63 33 -112 112 -112 181 l0 35 49 0 48 0 6 -42z m-633 -133 c0 -9 -51 -139 -56 -144 -3 -3 -5 21 -3 54 1 33 -1 60 -6 60 -4 0 -7 -32 -6 -70 2 -68 1 -71 -27 -88 -30 -17 -96 -22 -140 -11 -20 6 -22 11 -16 43 9 50 9 50 48 37 30 -9 36 -16 39 -46 4 -32 4 -32 3 5 -1 26 5 46 17 58 19 19 22 44 7 81 l-10 26 75 0 c41 0 75 -2 75 -5z"/>
<path d="M3010 1620 c0 -5 5 -10 10 -10 6 0 10 5 10 10 0 6 -4 10 -10 10 -5 0 -10 -4 -10 -10z"/>
<path d="M3070 1590 c20 -13 90 -13 90 0 0 6 -24 10 -52 10 -38 0 -49 -3 -38 -10z"/>
<path d="M2660 1520 c0 -5 11 -10 24 -10 14 0 28 5 31 10 4 6 -7 10 -24 10 -17 0 -31 -4 -31 -10z"/>
<path d="M2540 1330 c0 -5 4 -10 9 -10 6 0 13 5 16 10 3 6 -1 10 -9 10 -9 0 -16 -4 -16 -10z"/>
<path d="M2808 1463 c6 -2 18 -2 25 0 6 3 1 5 -13 5 -14 0 -19 -2 -12 -5z"/>
<path d="M2850 1460 c0 -5 5 -10 10 -10 6 0 10 5 10 10 0 6 -4 10 -10 10 -5 0 -10 -4 -10 -10z"/>
<path d="M3106 1395 c4 -8 10 -15 15 -15 5 0 9 7 9 15 0 8 -7 15 -15 15 -9 0 -12 -6 -9 -15z"/>
<path d="M3194 1707 c-25 -14 -16 -41 41 -122 30 -44 55 -85 55 -92 0 -7 -22 -48 -50 -90 -27 -42 -50 -84 -50 -93 0 -19 28 -37 55 -35 11 1 34 2 52 3 26 2 37 10 60 47 15 24 31 44 35 45 4 0 13 -10 19 -22 27 -51 66 -78 115 -78 55 0 84 14 84 40 0 11 -27 58 -61 104 l-60 85 32 48 c18 26 39 54 46 61 8 8 21 28 29 44 14 27 14 32 1 45 -9 9 -38 17 -68 18 -46 3 -56 0 -78 -23 -15 -15 -33 -38 -42 -52 l-16 -24 -29 41 c-16 23 -40 47 -54 53 -27 11 -93 10 -116 -3z m158 -77 c23 -33 45 -59 48 -60 3 0 19 26 36 58 24 45 36 58 57 60 32 4 33 2 6 -49 -11 -23 -18 -43 -15 -46 2 -3 16 18 30 46 21 41 31 51 51 51 25 0 33 -14 15 -25 -23 -14 -121 -166 -114 -177 4 -7 27 -39 51 -70 l43 -58 -65 0 c-59 0 -66 2 -82 28 -35 54 -37 53 -72 -4 -21 -36 -36 -51 -46 -47 -8 3 -15 0 -15 -7 0 -26 37 -2 67 45 41 62 43 48 3 -20 l-29 -50 -56 0 c-30 0 -54 2 -52 5 1 3 22 38 47 78 44 71 46 72 88 72 40 0 44 3 70 45 15 25 32 43 39 41 7 -3 15 -1 18 4 4 6 -4 10 -17 10 -17 0 -30 -12 -48 -45 -23 -41 -28 -45 -64 -45 -31 0 -36 3 -27 14 8 10 4 22 -17 52 -61 84 -102 144 -102 149 0 3 24 5 54 5 l54 0 44 -60z m230 -302 l15 -23 -64 2 c-53 1 -68 5 -80 22 -14 21 -13 21 50 21 56 0 67 -3 79 -22z"/>
<path d="M3260 1630 c0 -5 19 -10 43 -10 31 0 38 3 27 10 -20 13 -70 13 -70 0z"/>
<path d="M3450 1600 c0 -5 5 -10 10 -10 6 0 10 5 10 10 0 6 -4 10 -10 10 -5 0 -10 -4 -10 -10z"/>
<path d="M3320 1570 c-24 -8 -23 -8 8 -9 17 -1 32 4 32 9 0 11 -5 11 -40 0z"/>
<path d="M2015 1640 c3 -5 22 -10 41 -10 19 0 34 5 34 10 0 6 -18 10 -41 10 -24 0 -38 -4 -34 -10z"/>
<path d="M2115 1451 c-7 -12 12 -24 25 -16 11 7 4 25 -10 25 -5 0 -11 -4 -15 -9z"/>
</g>
</svg>